<?xml version="1.0" encoding="iso-8859-1"?>
<svg height="800px" width="800px" version="1.1" id="Capa_1" xmlns="http://www.w3.org/2000/svg" xmlns:xlink="http://www.w3.org/1999/xlink" 
	 viewBox="0 0 112.3 112.3" xml:space="preserve">
<g>
	<path fill="currentColor" d="M107.435,31.472c0.959-1.317,1.6-2.97,1.732-4.831c0.125-1.804-0.218-3.543-0.991-5.021
		c-0.744-1.421-1.886-2.466-3.207-3.121c-0.809-3.436-3.275-5.977-6.474-6.338c-1.51-3.131-4.245-5.2-7.437-5.2l-0.401,0.011
		c-0.766,0.043-1.482,0.24-2.172,0.501c-1.725-2.537-4.266-4.148-7.154-4.148l-0.429,0.011c-1.571,0.086-2.981,0.659-4.205,1.532
		c-2.523-3.436-6.17-5.361-9.967-4.756c-6.17,0.991-9.838,7.859-8.536,15.972c0.666,4.126,2.548,7.566,5.046,9.82
		c-0.905,1.313-1.557,2.759-1.836,4.359c-1.56,8.983,4.996,14.53,9.334,18.195c0.973,0.827,1.904,1.6,2.648,2.369
		c2.659,2.745,3.124,7.312,1.045,10.178c-0.147,0.204-0.39,0.49-0.691,0.852c-3.067,3.711-11.23,13.567-8.042,24.279
		c1.814,6.116,6.048,9.91,12.587,11.27c1.832,0.379,3.586,0.573,5.222,0.573c9.878,0,15.969-6.854,16.298-18.331
		c0.129-4.391,0.816-7.831,2.176-10.865C106.447,58.649,113.683,42.172,107.435,31.472z M70.447,23.28
		c-3.046,0.49-6.163-3.114-6.954-8.045c-0.795-4.932,1.034-9.33,4.087-9.82c3.046-0.487,6.159,3.114,6.95,8.045
		S73.5,22.789,70.447,23.28z M81.875,21.204c-2.137,0.118-4.015-2.588-4.205-6.041c-0.19-3.454,1.392-6.345,3.522-6.467
		c2.137-0.115,4.019,2.591,4.209,6.041C85.593,18.194,84.011,21.089,81.875,21.204z M91.505,22.482
		c-1.729,0.093-3.257-2.101-3.411-4.907c-0.154-2.802,1.127-5.15,2.86-5.247c1.732-0.093,3.264,2.104,3.418,4.907
		C94.522,20.037,93.241,22.389,91.505,22.482z M97.299,24.962c-1.278-0.089-2.197-1.847-2.047-3.915
		c0.143-2.076,1.299-3.679,2.58-3.59s2.201,1.843,2.054,3.915C99.74,23.448,98.581,25.055,97.299,24.962z M101.748,29.131
		c-1.02-0.072-1.757-1.474-1.639-3.128s1.041-2.935,2.061-2.863c1.027,0.072,1.757,1.474,1.643,3.128
		C103.695,27.918,102.771,29.203,101.748,29.131z"/>
	<path fill="currentColor" d="M53.161,20.914c-1.492-3.582-4.255-5.948-7.591-6.485c-3.786-0.608-7.433,1.317-9.964,4.756
		c-1.228-0.877-2.638-1.449-4.216-1.535l-0.422-0.011c-2.888,0-5.426,1.607-7.154,4.151c-0.691-0.265-1.414-0.462-2.183-0.508
		l-0.39-0.011c-3.192,0-5.923,2.069-7.433,5.2c-3.178,0.361-5.633,2.87-6.46,6.281c-0.827,0.401-1.585,0.97-2.219,1.7
		c-1.446,1.668-2.172,4.041-1.997,6.514c0.132,1.857,0.773,3.504,1.729,4.821c-6.242,10.697,0.991,27.178,5.472,37.36
		c1.349,2.996,2.033,6.431,2.162,10.826c0.336,11.477,6.431,18.327,16.302,18.327c1.632,0,3.389-0.193,5.222-0.576
		c6.531-1.36,10.765-5.146,12.587-11.263c3.189-10.708-4.967-20.564-8.038-24.275c-0.301-0.365-0.544-0.651-0.694-0.855
		c-2.079-2.87-1.614-7.44,1.045-10.185c0.744-0.769,1.678-1.542,2.652-2.369c4.338-3.668,10.89-9.216,9.326-18.195
		c-0.276-1.596-0.927-3.046-1.832-4.355c2.498-2.255,4.381-5.694,5.039-9.817C54.647,27.052,54.31,23.677,53.161,20.914z
		 M10.548,43.447c-1.02,0.072-1.943-1.21-2.061-2.867c-0.118-1.653,0.616-3.056,1.639-3.128c1.02-0.072,1.947,1.21,2.061,2.863
		C12.305,41.976,11.568,43.375,10.548,43.447z M14.997,39.277c-1.281,0.093-2.437-1.514-2.588-3.59
		c-0.143-2.072,0.777-3.822,2.054-3.915c1.281-0.089,2.437,1.514,2.584,3.59C17.194,37.434,16.274,39.188,14.997,39.277z
		 M20.791,36.801c-1.736-0.093-3.017-2.444-2.863-5.247c0.154-2.802,1.686-5,3.414-4.907c1.729,0.097,3.013,2.444,2.86,5.247
		C24.051,34.696,22.523,36.894,20.791,36.801z M30.421,35.519c-2.137-0.115-3.711-3.01-3.522-6.467
		c0.19-3.454,2.069-6.159,4.205-6.041c2.137,0.118,3.715,3.013,3.525,6.467C34.44,32.935,32.554,35.637,30.421,35.519z
		 M48.802,29.55c-0.791,4.932-3.908,8.536-6.954,8.045c-3.046-0.49-4.874-4.889-4.083-9.82c0.795-4.932,3.908-8.532,6.954-8.045
		C47.768,20.22,49.6,24.618,48.802,29.55z"/>
</g>
</svg>