<svg width="100" height="80" viewBox="0 0 100 80" xmlns="http://www.w3.org/2000/svg">
  <defs>
    <!-- Плавный технологичный градиент -->
    <linearGradient id="modern-u-gradient" x1="0%" y1="0%" x2="100%" y2="100%">
      <stop offset="0%" style="stop-color:#22D3EE;stop-opacity:1" />
      <stop offset="50%" style="stop-color:#8B5CF6;stop-opacity:1" />
      <stop offset="100%" style="stop-color:#D946EF;stop-opacity:1" />
    </linearGradient>
  </defs>

  <!-- Тело буквы U с выверенной шириной -->
  <path d="M22 15 V48 C22 62 35 72 50 72 C65 72 78 62 78 48 V42 H65 V48 C65 55 58 60 50 60 C42 60 35 55 35 48 V15 H22Z" fill="url(#modern-u-gradient)" />

  <!-- Облако пикселей (эффект распада/загрузки) -->
  <g fill="url(#modern-u-gradient)">
    <rect x="75" y="15" width="7" height="7" />
    <rect x="85" y="22" width="5" height="5" />
    <rect x="80" y="5" width="4" height="4" />
    <rect x="90" y="12" width="3" height="3" />
    <rect x="88" y="2" width="2" height="2" />
    <rect x="70" y="2" width="3" height="3" />
    <rect x="82" y="18" width="3" height="3" />
    <rect x="86" y="32" width="4" height="4" opacity="0.7" />
  </g>
</svg>